<svg width="28" height="32" viewBox="0 0 28 32" fill="none" xmlns="http://www.w3.org/2000/svg">
<path d="M18.4947 23.5165L10.3603 22.0901L14.7772 5.03375L3.51465 2.13136L4.06539 0L17.4648 3.44762L13.092 20.3333L18.8747 21.3466L18.4947 23.5165Z" fill="black"/>
<path d="M4.42394 18.2075C3.74653 18.2075 2.95347 18.0313 2.04475 17.5411C-1.0504 15.8779 0.243839 10.756 0.403553 10.1777L2.5294 10.756L1.46648 10.4641L2.5294 10.7505C2.17693 12.0447 1.8575 14.9361 3.08565 15.597C4.30278 16.2524 4.90859 15.9385 5.10686 15.8338C6.54428 15.0903 7.21068 12.0668 7.33184 11.0644L9.51827 11.3233C9.45769 11.8355 8.85188 16.368 6.12572 17.7889C5.69615 18.0092 5.12338 18.202 4.42394 18.202V18.2075Z" fill="black"/>
<path d="M22.9013 19.4907C22.2239 19.4907 21.4308 19.3145 20.5221 18.8243C17.4269 17.1611 18.7267 12.0392 18.8809 11.4609L21.0067 12.0392L19.9438 11.7473L21.0067 12.0337C20.6542 13.3279 20.3348 16.2193 21.563 16.8802C22.7801 17.5356 23.3859 17.2217 23.5842 17.117C25.0216 16.3735 25.688 13.35 25.8092 12.3476L27.9956 12.6065C27.935 13.1187 27.3292 17.6512 24.603 19.0721C24.1735 19.2924 23.6007 19.4852 22.9013 19.4852V19.4907Z" fill="black"/>
<path d="M13.4566 31.3207C6.88075 31.3207 3.05312 27.471 2.99805 27.4104L4.57867 25.8794C4.86505 26.1713 11.7713 33.0059 23.4139 26.0226L24.5484 27.9116C20.3078 30.456 16.5737 31.3207 13.4566 31.3207Z" fill="black"/>
</svg>
