<svg width="51" height="57" viewBox="0 0 51 57" fill="none" xmlns="http://www.w3.org/2000/svg">
<path d="M33.5828 42.7L18.8128 40.11L26.8328 9.14L6.38275 3.87L7.38275 0L31.7127 6.26L23.7728 36.92L34.2728 38.76L33.5828 42.7Z" fill="black"/>
<path d="M8.03275 33.06C6.80275 33.06 5.36275 32.74 3.71275 31.85C-1.90725 28.83 0.44275 19.53 0.73275 18.48L4.59275 19.53L2.66275 19L4.59275 19.52C3.95275 21.87 3.37275 27.12 5.60275 28.32C7.81275 29.51 8.91275 28.94 9.27275 28.75C11.8828 27.4 13.0928 21.91 13.3128 20.09L17.2828 20.56C17.1728 21.49 16.0728 29.72 11.1228 32.3C10.3428 32.7 9.30275 33.05 8.03275 33.05V33.06Z" fill="black"/>
<path d="M41.5827 35.39C40.3527 35.39 38.9127 35.07 37.2627 34.18C31.6427 31.16 34.0027 21.86 34.2827 20.81L38.1427 21.86L36.2127 21.33L38.1427 21.85C37.5027 24.2 36.9227 29.45 39.1527 30.65C41.3627 31.84 42.4627 31.27 42.8227 31.08C45.4327 29.73 46.6427 24.24 46.8627 22.42L50.8327 22.89C50.7227 23.82 49.6227 32.05 44.6727 34.63C43.8927 35.03 42.8527 35.38 41.5827 35.38V35.39Z" fill="black"/>
<path d="M24.4327 56.87C12.4927 56.87 5.54275 49.88 5.44275 49.77L8.31275 46.99C8.83275 47.52 21.3727 59.93 42.5127 47.25L44.5728 50.68C36.8728 55.3 30.0927 56.87 24.4327 56.87Z" fill="black"/>
</svg>
